<?xml version="1.0" encoding="UTF-8" standalone="no"?> <!-- Created with Vectornator for iOS (http://vectornator.io/) --><!DOCTYPE svg PUBLIC "-//W3C//DTD SVG 1.1//EN" "http://www.w3.org/Graphics/SVG/1.1/DTD/svg11.dtd">
<svg height="100%" style="fill-rule:nonzero;clip-rule:evenodd;stroke-linecap:round;stroke-linejoin:round;" xmlns:xlink="http://www.w3.org/1999/xlink" xmlns="http://www.w3.org/2000/svg" xml:space="preserve" width="100%" xmlns:vectornator="http://vectornator.io" version="1.1" viewBox="0 0 2160 1620">
<defs/>
<g id="Layer 1" vectornator:layerName="Layer 1">
<path stroke="#ff3c3c" stroke-width="6.95025" d="M-14.6439+1621.64C-14.6439+1616.01+28.1001+1615.41+34.8808+1613.15C73.402+1600.31+127.39+1590.3+159.4+1563.63C257.741+1481.68+380.054+1391.25+508.902+1369.78C552.918+1362.44+638.467+1362.97+680.116+1376.85C696.531+1382.32+710.819+1389.25+728.226+1392.42C785.881+1402.9+878.892+1411.14+936.229+1402.32C952.719+1399.78+966.882+1391.61+982.924+1388.17C996.7+1385.22+1012.03+1385.95+1025.37+1381.1C1087.78+1358.4+1142.54+1322.37+1198+1287.71C1236.91+1263.39+1265.26+1231.73+1309.79+1215.54C1384.81+1188.26+1468.76+1194.22+1546.09+1178.75C1587.88+1170.39+1637.64+1136.74+1670.61+1110.83C1689.98+1095.62+1702.62+1073.62+1721.55+1058.48C1762.56+1025.67+1798.56+989.263+1833.33+949.524C1854.68+925.124+1869.7+895.748+1891.35+871.7C1916.8+843.42+1946.39+823.212+1977.66+802.365C2022.54+772.449+2161.61+723.126+2163.02+735.861C2164.44+748.596+2169.71+1622.7+2158.72+1621.75" fill="#1bf000" stroke-linecap="butt" opacity="1" stroke-linejoin="round"/>
</g>
</svg>




<svg width="100%" height="100%" id="svg" viewBox="0 0 1440 400" xmlns="http://www.w3.org/2000/svg" class="transition duration-300 ease-in-out delay-150"><defs><linearGradient id="gradient" x1="0%" y1="50%" x2="100%" y2="50%"><stop offset="5%" stop-color="#002bdcff"></stop><stop offset="95%" stop-color="#32ded4ff"></stop></linearGradient></defs><path d="M 0,400 C 0,400 0,200 0,200 C 53.17304860088366,223.35290868924892 106.34609720176732,246.7058173784978 164,222 C 221.65390279823268,197.2941826215022 283.7886597938144,124.52963917525773 353,125 C 422.2113402061856,125.47036082474227 498.4992636229749,199.1756259204713 561,242 C 623.5007363770251,284.8243740795287 672.2142857142857,296.7678571428571 737,268 C 801.7857142857143,239.23214285714286 882.6435935198822,169.75294550810014 933,167 C 983.3564064801178,164.24705449189986 1003.2113402061855,228.22036082474227 1050,251 C 1096.7886597938145,273.7796391752577 1170.5110456553757,255.3656111929308 1240,240 C 1309.4889543446243,224.6343888070692 1374.7444771723121,212.3171944035346 1440,200 C 1440,200 1440,400 1440,400 Z" stroke="none" stroke-width="0" fill="url(#gradient)" class="transition-all duration-300 ease-in-out delay-150 path-0"></path></svg>