{
  "accessors": [
    {
      "bufferView": 2,
      "componentType": 5126,
      "count": 823,
      "max": [
        4.953769207000732,
        120.63728332519531,
        63.21771240234375
      ],
      "min": [
        -10.113497734069824,
        95.86722564697266,
        57.15938186645508
      ],
      "type": "VEC3"
    },
    {
      "bufferView": 2,
      "byteOffset": 9876,
      "componentType": 5126,
      "count": 823,
      "max": [
        0.9996020793914795,
        1.0,
        0.9998590350151062
      ],
      "min": [
        -0.9997861385345459,
        -0.9996510744094849,
        -0.9999926090240479
      ],
      "type": "VEC3"
    },
    {
      "bufferView": 3,
      "componentType": 5126,
      "count": 823,
      "max": [
        0.9998809099197388,
        0.9999702572822571,
        0.9999932050704956,
        1.0
      ],
      "min": [
        -0.9999497532844543,
        -0.9870489835739136,
        -0.998436689376831,
        1.0
      ],
      "type": "VEC4"
    },
    {
      "bufferView": 1,
      "componentType": 5126,
      "count": 823,
      "max": [
        0.9615730047225952,
        0.9780200123786926
      ],
      "min": [
        0.03146899864077568,
        0.00735800014808774
      ],
      "type": "VEC2"
    },
    {
      "bufferView": 0,
      "componentType": 5125,
      "count": 4386,
      "type": "SCALAR"
    },
    {
      "bufferView": 2,
      "byteOffset": 19752,
      "componentType": 5126,
      "count": 823,
      "max": [
        4.953769207000732,
        120.63728332519531,
        63.21771240234375
      ],
      "min": [
        -10.113497734069824,
        95.86722564697266,
        57.15938186645508
      ],
      "type": "VEC3"
    },
    {
      "bufferView": 2,
      "byteOffset": 29628,
      "componentType": 5126,
      "count": 823,
      "max": [
        0.9996020793914795,
        1.0,
        0.9998590350151062
      ],
      "min": [
        -0.9997861385345459,
        -0.9996510744094849,
        -0.9999926090240479
      ],
      "type": "VEC3"
    },
    {
      "bufferView": 3,
      "byteOffset": 13168,
      "componentType": 5126,
      "count": 823,
      "max": [
        0.9998809099197388,
        0.9999702572822571,
        0.9999932050704956,
        1.0
      ],
      "min": [
        -0.9999497532844543,
        -0.9870489835739136,
        -0.998436689376831,
        1.0
      ],
      "type": "VEC4"
    },
    {
      "bufferView": 1,
      "byteOffset": 6584,
      "componentType": 5126,
      "count": 823,
      "max": [
        0.9615730047225952,
        0.9780200123786926
      ],
      "min": [
        0.03146899864077568,
        0.00735800014808774
      ],
      "type": "VEC2"
    },
    {
      "bufferView": 0,
      "byteOffset": 17544,
      "componentType": 5125,
      "count": 4386,
      "type": "SCALAR"
    },
    {
      "bufferView": 2,
      "byteOffset": 39504,
      "componentType": 5126,
      "count": 823,
      "max": [
        4.953769207000732,
        120.63728332519531,
        63.21771240234375
      ],
      "min": [
        -10.113497734069824,
        95.86722564697266,
        57.15938186645508
      ],
      "type": "VEC3"
    },
    {
      "bufferView": 2,
      "byteOffset": 49380,
      "componentType": 5126,
      "count": 823,
      "max": [
        0.9996020793914795,
        1.0,
        0.9998590350151062
      ],
      "min": [
        -0.9997861385345459,
        -0.9996510744094849,
        -0.9999926090240479
      ],
      "type": "VEC3"
    },
    {
      "bufferView": 3,
      "byteOffset": 26336,
      "componentType": 5126,
      "count": 823,
      "max": [
        0.9998809099197388,
        0.9999702572822571,
        0.9999932050704956,
        1.0
      ],
      "min": [
        -0.9999497532844543,
        -0.9870489835739136,
        -0.998436689376831,
        1.0
      ],
      "type": "VEC4"
    },
    {
      "bufferView": 1,
      "byteOffset": 13168,
      "componentType": 5126,
      "count": 823,
      "max": [
        0.9615730047225952,
        0.9780200123786926
      ],
      "min": [
        0.03146899864077568,
        0.00735800014808774
      ],
      "type": "VEC2"
    },
    {
      "bufferView": 0,
      "byteOffset": 35088,
      "componentType": 5125,
      "count": 4386,
      "type": "SCALAR"
    },
    {
      "bufferView": 2,
      "byteOffset": 59256,
      "componentType": 5126,
      "count": 823,
      "max": [
        4.953769207000732,
        120.63728332519531,
        63.21771240234375
      ],
      "min": [
        -10.113497734069824,
        95.86722564697266,
        57.15938186645508
      ],
      "type": "VEC3"
    },
    {
      "bufferView": 2,
      "byteOffset": 69132,
      "componentType": 5126,
      "count": 823,
      "max": [
        0.9996020793914795,
        1.0,
        0.9998590350151062
      ],
      "min": [
        -0.9997861385345459,
        -0.9996510744094849,
        -0.9999926090240479
      ],
      "type": "VEC3"
    },
    {
      "bufferView": 3,
      "byteOffset": 39504,
      "componentType": 5126,
      "count": 823,
      "max": [
        0.9998809099197388,
        0.9999702572822571,
        0.9999932050704956,
        1.0
      ],
      "min": [
        -0.9999497532844543,
        -0.9870489835739136,
        -0.998436689376831,
        1.0
      ],
      "type": "VEC4"
    },
    {
      "bufferView": 1,
      "byteOffset": 19752,
      "componentType": 5126,
      "count": 823,
      "max": [
        0.9615730047225952,
        0.9780200123786926
      ],
      "min": [
        0.03146899864077568,
        0.00735800014808774
      ],
      "type": "VEC2"
    },
    {
      "bufferView": 0,
      "byteOffset": 52632,
      "componentType": 5125,
      "count": 4386,
      "type": "SCALAR"
    }
  ],
  "asset": {
    "extras": {
      "author": "3dia (https://sketchfab.com/3dia)",
      "license": "SKETCHFAB Standard (https://sketchfab.com/licenses)",
      "source": "https://sketchfab.com/3d-models/cooking-hot-handle-oven-gloves-83ad6e2bf7934fe3bacb67e76d4f3277",
      "title": "Cooking Hot Handle Oven Gloves"
    },
    "generator": "Sketchfab-11.8.0",
    "version": "2.0"
  },
  "bufferViews": [
    {
      "buffer": 0,
      "byteLength": 70176,
      "name": "floatBufferViews",
      "target": 34963
    },
    {
      "buffer": 0,
      "byteLength": 26336,
      "byteOffset": 70176,
      "byteStride": 8,
      "name": "floatBufferViews",
      "target": 34962
    },
    {
      "buffer": 0,
      "byteLength": 79008,
      "byteOffset": 96512,
      "byteStride": 12,
      "name": "floatBufferViews",
      "target": 34962
    },
    {
      "buffer": 0,
      "byteLength": 52672,
      "byteOffset": 175520,
      "byteStride": 16,
      "name": "floatBufferViews",
      "target": 34962
    }
  ],
  "buffers": [
    {
      "byteLength": 228192,
      "uri": "scene.bin"
    }
  ],
  "images": [
    {
      "uri": "textures/Teal_baseColor.png"
    },
    {
      "uri": "textures/Teal_metallicRoughness.png"
    },
    {
      "uri": "textures/Teal_normal.png"
    },
    {
      "uri": "textures/Green_baseColor.png"
    },
    {
      "uri": "textures/Green_metallicRoughness.png"
    },
    {
      "uri": "textures/Green_normal.png"
    },
    {
      "uri": "textures/RedStars_baseColor.png"
    },
    {
      "uri": "textures/RedStars_metallicRoughness.png"
    },
    {
      "uri": "textures/RedStars_normal.png"
    },
    {
      "uri": "textures/StraightRed_baseColor.png"
    },
    {
      "uri": "textures/StraightRed_metallicRoughness.png"
    },
    {
      "uri": "textures/StraightRed_normal.png"
    }
  ],
  "materials": [
    {
      "doubleSided": true,
      "name": "Teal",
      "normalTexture": {
        "index": 2,
        "scale": 0.5733265948617393
      },
      "occlusionTexture": {
        "index": 1
      },
      "pbrMetallicRoughness": {
        "baseColorTexture": {
          "index": 0
        },
        "metallicFactor": 0.0,
        "metallicRoughnessTexture": {
          "index": 1
        },
        "roughnessFactor": 0.6298532220435101
      }
    },
    {
      "doubleSided": true,
      "name": "Green",
      "normalTexture": {
        "index": 5,
        "scale": 0.1964824136499341
      },
      "occlusionTexture": {
        "index": 4
      },
      "pbrMetallicRoughness": {
        "baseColorTexture": {
          "index": 3
        },
        "metallicRoughnessTexture": {
          "index": 4
        },
        "roughnessFactor": 0.7303450036999916
      }
    },
    {
      "doubleSided": true,
      "name": "RedStars",
      "normalTexture": {
        "index": 8
      },
      "occlusionTexture": {
        "index": 7
      },
      "pbrMetallicRoughness": {
        "baseColorTexture": {
          "index": 6
        },
        "metallicRoughnessTexture": {
          "index": 7
        },
        "roughnessFactor": 0.7868716308817624
      }
    },
    {
      "doubleSided": true,
      "name": "StraightRed",
      "normalTexture": {
        "index": 11,
        "scale": 0.47911554955878805
      },
      "occlusionTexture": {
        "index": 10
      },
      "pbrMetallicRoughness": {
        "baseColorTexture": {
          "index": 9
        },
        "metallicRoughnessTexture": {
          "index": 10
        },
        "roughnessFactor": 0.8748019398311836
      }
    }
  ],
  "meshes": [
    {
      "name": "CookingGloves_Teal_0",
      "primitives": [
        {
          "attributes": {
            "NORMAL": 1,
            "POSITION": 0,
            "TANGENT": 2,
            "TEXCOORD_0": 3
          },
          "indices": 4,
          "material": 0,
          "mode": 4
        }
      ]
    },
    {
      "name": "CookingGloves1_Green_0",
      "primitives": [
        {
          "attributes": {
            "NORMAL": 6,
            "POSITION": 5,
            "TANGENT": 7,
            "TEXCOORD_0": 8
          },
          "indices": 9,
          "material": 1,
          "mode": 4
        }
      ]
    },
    {
      "name": "CookingGloves2_RedStars_0",
      "primitives": [
        {
          "attributes": {
            "NORMAL": 11,
            "POSITION": 10,
            "TANGENT": 12,
            "TEXCOORD_0": 13
          },
          "indices": 14,
          "material": 2,
          "mode": 4
        }
      ]
    },
    {
      "name": "CookingGloves3_StraightRed_0",
      "primitives": [
        {
          "attributes": {
            "NORMAL": 16,
            "POSITION": 15,
            "TANGENT": 17,
            "TEXCOORD_0": 18
          },
          "indices": 19,
          "material": 3,
          "mode": 4
        }
      ]
    }
  ],
  "nodes": [
    {
      "children": [
        1
      ],
      "matrix": [
        1.0,
        0.0,
        0.0,
        0.0,
        0.0,
        2.220446049250313e-16,
        -1.0,
        0.0,
        0.0,
        1.0,
        2.220446049250313e-16,
        0.0,
        0.0,
        0.0,
        0.0,
        1.0
      ],
      "name": "Sketchfab_model"
    },
    {
      "children": [
        2
      ],
      "matrix": [
        1.0,
        0.0,
        0.0,
        0.0,
        0.0,
        0.0,
        1.0,
        0.0,
        0.0,
        -1.0,
        0.0,
        0.0,
        0.0,
        0.0,
        0.0,
        1.0
      ],
      "name": "38a006b75a4a42e09ea94ad745594aa2.fbx"
    },
    {
      "children": [
        3,
        5,
        7,
        9
      ],
      "name": "RootNode"
    },
    {
      "children": [
        4
      ],
      "name": "CookingGloves"
    },
    {
      "mesh": 0,
      "name": "CookingGloves_Teal_0"
    },
    {
      "children": [
        6
      ],
      "matrix": [
        1.0,
        0.0,
        0.0,
        0.0,
        0.0,
        1.0,
        0.0,
        0.0,
        0.0,
        0.0,
        1.0,
        0.0,
        16.74871253967285,
        0.0,
        0.0,
        1.0
      ],
      "name": "CookingGloves1"
    },
    {
      "mesh": 1,
      "name": "CookingGloves1_Green_0"
    },
    {
      "children": [
        8
      ],
      "matrix": [
        1.0,
        0.0,
        0.0,
        0.0,
        0.0,
        1.0,
        0.0,
        0.0,
        0.0,
        0.0,
        1.0,
        0.0,
        -16.29800033569336,
        0.0,
        0.0,
        1.0
      ],
      "name": "CookingGloves2"
    },
    {
      "mesh": 2,
      "name": "CookingGloves2_RedStars_0"
    },
    {
      "children": [
        10
      ],
      "matrix": [
        1.0,
        0.0,
        0.0,
        0.0,
        0.0,
        1.0,
        0.0,
        0.0,
        0.0,
        0.0,
        1.0,
        0.0,
        32.20463180541992,
        0.0,
        0.0,
        1.0
      ],
      "name": "CookingGloves3"
    },
    {
      "mesh": 3,
      "name": "CookingGloves3_StraightRed_0"
    }
  ],
  "samplers": [
    {
      "magFilter": 9729,
      "minFilter": 9987,
      "wrapS": 10497,
      "wrapT": 10497
    }
  ],
  "scene": 0,
  "scenes": [
    {
      "name": "Sketchfab_Scene",
      "nodes": [
        0
      ]
    }
  ],
  "textures": [
    {
      "sampler": 0,
      "source": 0
    },
    {
      "sampler": 0,
      "source": 1
    },
    {
      "sampler": 0,
      "source": 2
    },
    {
      "sampler": 0,
      "source": 3
    },
    {
      "sampler": 0,
      "source": 4
    },
    {
      "sampler": 0,
      "source": 5
    },
    {
      "sampler": 0,
      "source": 6
    },
    {
      "sampler": 0,
      "source": 7
    },
    {
      "sampler": 0,
      "source": 8
    },
    {
      "sampler": 0,
      "source": 9
    },
    {
      "sampler": 0,
      "source": 10
    },
    {
      "sampler": 0,
      "source": 11
    }
  ]
}
